<?xml version="1.0" encoding="UTF-8"?>
<svg xmlns="http://www.w3.org/2000/svg" xmlns:xlink="http://www.w3.org/1999/xlink" width="393.49pt" height="154.07pt" viewBox="0 0 393.49 154.07" version="1.1">
<defs>
<clipPath id="clip1">
  <path d="M 102 0 L 393.488281 0 L 393.488281 154.070313 L 102 154.070313 Z M 102 0 "/>
</clipPath>
</defs>
<g id="surface1">
<path style=" stroke:none;fill-rule:nonzero;fill:rgb(21.556091%,50.584412%,76.171875%);fill-opacity:1;" d="M 0.00390625 15.761719 L 0 15.570313 L 0 0.429688 L 15.113281 0.429688 L 15.113281 111.496094 L 15.117188 111.84375 L 15.117188 126.828125 L 0 126.828125 L 0 111.6875 L 0.00390625 111.496094 "/>
<g clip-path="url(#clip1)" clip-rule="nonzero">
<path style=" stroke:none;fill-rule:nonzero;fill:rgb(21.556091%,50.584412%,76.171875%);fill-opacity:1;" d="M 226.644531 108.1875 C 235.984375 116.714844 244.394531 121.125 255.148438 121.125 C 266.15625 121.210938 275.941406 115.792969 275.941406 105.371094 C 275.941406 96.671875 268.273438 91.585938 254.578125 85.757813 C 242.972656 80.703125 234.332031 77.160156 229.820313 69.847656 C 230.371094 73.023438 230.660156 76.308594 230.660156 79.667969 C 230.660156 107.878906 210.320313 130.753906 185.226563 130.753906 C 160.132813 130.753906 139.792969 107.878906 139.792969 79.667969 C 139.792969 62.660156 147.1875 47.59375 158.554688 38.308594 L 127.808594 38.308594 L 127.808594 111.496094 L 127.8125 111.789063 L 127.8125 126.828125 L 114.15625 126.828125 L 114.15625 112.277344 C 114.164063 112.023438 114.167969 111.761719 114.167969 111.496094 L 114.167969 38.308594 L 102.128906 38.308594 L 102.128906 29.097656 L 114.34375 29.097656 C 115.921875 10.511719 127.367188 0.00390625 143.207031 0.00390625 C 153.480469 0.00390625 159.121094 1.078125 162.378906 2.597656 L 162.378906 15.195313 C 162.328125 16.132813 162.328125 16.707031 162.328125 16.707031 C 162.1875 16.691406 161.851563 16.683594 161.851563 16.683594 C 156.90625 12.097656 152.027344 8.683594 140.636719 8.695313 C 131.5625 8.695313 125.5625 16.109375 127.65625 29.097656 L 178.765625 29.097656 C 180.878906 28.757813 183.03125 28.582031 185.226563 28.582031 C 203.429688 28.582031 219.132813 40.617188 226.382813 58.003906 C 226.316406 57.039063 226.28125 56.03125 226.28125 54.980469 C 226.28125 36.84375 243.734375 29.128906 261.863281 29.167969 C 262.554688 29.164063 263.234375 29.167969 263.902344 29.183594 C 270.28125 29.078125 279.371094 31.175781 284.921875 32.640625 L 295.683594 59.230469 L 311.058594 96.960938 L 312.863281 103.023438 L 314.875 96.960938 L 334.320313 48.53125 C 337.910156 35.199219 352.109375 29.425781 367.792969 29.460938 C 375.589844 29.421875 381.351563 30.367188 388.257813 32.8125 L 388.257813 47.460938 C 379.753906 41.242188 373.664063 37.628906 364.015625 37.628906 C 355.535156 37.628906 345.34375 41.40625 345.34375 53.960938 C 345.179688 63.394531 350.808594 65.121094 367.320313 73.363281 C 380.890625 79.292969 393.410156 85.835938 393.484375 100.992188 C 393.484375 126.261719 368.738281 130.636719 356.695313 130.675781 C 345.941406 130.675781 336.085938 128.003906 330.601563 123.417969 L 330.601563 106.734375 L 331.484375 107.46875 C 341.265625 116.660156 349.910156 121.421875 361.078125 121.421875 C 372.089844 121.503906 381.871094 116.085938 381.871094 105.660156 C 381.871094 96.960938 374.207031 91.875 360.507813 86.046875 C 347.417969 80.347656 338.828125 76.570313 335.316406 67.128906 C 329.980469 80.226563 305.148438 141.066406 299.300781 154.070313 L 285.914063 154.070313 L 291.972656 142.6875 C 295.328125 136.039063 300.210938 125.605469 304.550781 115.625 L 278.773438 53.019531 C 278.601563 52.640625 278.179688 51.679688 277.316406 49.707031 C 275.339844 45.171875 273.496094 40.984375 267.933594 38.875 C 264.949219 37.863281 261.777344 37.335938 258.085938 37.335938 C 249.605469 37.335938 238.757813 41.113281 238.757813 53.667969 C 238.59375 63.105469 244.871094 64.828125 261.386719 73.070313 C 274.960938 79 287.480469 85.546875 287.554688 100.699219 C 287.554688 125.96875 262.804688 130.34375 250.757813 130.382813 C 241.199219 130.382813 232.34375 128.273438 226.644531 124.578125 L 226.644531 108.1875 M 289.960938 45.09375 C 290.144531 45.605469 290.355469 46.136719 290.59375 46.699219 L 295.683594 59.230469 Z M 289.074219 148.128906 C 289.765625 146.941406 290.730469 145.128906 291.878906 142.859375 Z M 278.773438 53.019531 C 279.167969 53.894531 278.234375 51.714844 278.234375 51.714844 Z M 153.65625 80.796875 C 154.046875 103.769531 168.257813 122.140625 185.40625 121.835938 C 202.550781 121.527344 216.132813 102.652344 215.742188 79.679688 C 215.351563 56.703125 201.140625 38.335938 183.992188 38.644531 C 166.847656 38.953125 153.265625 57.824219 153.65625 80.796875 "/>
</g>
<path style=" stroke:none;fill-rule:nonzero;fill:rgb(21.556091%,50.584412%,76.171875%);fill-opacity:1;" d="M 43.3125 30.039063 L 43.476563 41.09375 L 43.46875 41.839844 L 43.617188 41.835938 C 43.789063 41.371094 44.027344 40.980469 44.253906 40.691406 C 49.804688 34.703125 56.796875 28.757813 73.425781 28.757813 C 89.34375 28.757813 99.644531 42.359375 100.058594 50.925781 L 100.074219 111.496094 L 100.074219 126.828125 L 86.433594 126.828125 L 86.433594 57.203125 C 86.433594 46.523438 77.117188 38.804688 65.714844 38.804688 C 56.238281 38.804688 44.074219 47.382813 43.667969 56.070313 L 43.667969 111.511719 L 43.675781 111.917969 L 43.675781 126.839844 L 30.03125 126.839844 L 30.03125 42.769531 L 30.035156 30.039063 L 43.3125 30.039063 "/>
</g>
</svg>
